<?xml version="1.0" encoding="iso-8859-1"?>
<!-- Generator: Adobe Illustrator 19.0.0, SVG Export Plug-In . SVG Version: 6.00 Build 0)  -->
<svg version="1.1" id="Capa_1" xmlns="http://www.w3.org/2000/svg" xmlns:xlink="http://www.w3.org/1999/xlink" x="0px" y="0px"
	 viewBox="0 0 464 464" style="enable-background:new 0 0 464 464;" xml:space="preserve">
<path style="fill:#E6E6E6;" d="M112,464H88c-13.255,0-24-10.745-24-24l0,0V24C64,10.745,74.745,0,88,0h336c13.255,0,24,10.745,24,24
	v416c0,13.255-10.745,24-24,24l0,0H112z"/>
<path style="fill:#0071BC;" d="M88,0h336c13.255,0,24,10.745,24,24v40l0,0H64l0,0V24C64,10.745,74.745,0,88,0z"/>
<path style="fill:#DA4836;" d="M88,24h16v16H88V24z"/>
<path style="fill:#F8CF26;" d="M120,24h16v16h-16V24z"/>
<path style="fill:#3DBF50;" d="M152,24h16v16h-16V24z"/>
<path style="fill:#29ABE2;" d="M16,176h224v144H16V176z"/>
<g>
	<path style="fill:#999999;" d="M96,128h152v16H96V128z"/>
	<path style="fill:#999999;" d="M128,96h120v16H128V96z"/>
	<path style="fill:#999999;" d="M96,96h16v16H96V96z"/>
	<path style="fill:#999999;" d="M296,312h120v16H296V312z"/>
	<path style="fill:#999999;" d="M264,312h16v16h-16V312z"/>
</g>
<g>
	<path style="fill:#F2F2F2;" d="M91.2,278.4l-32-24c-3.535-2.651-4.251-7.665-1.6-11.2c0.455-0.606,0.994-1.145,1.6-1.6l32-24
		l9.6,12.8L77.336,248l23.464,17.6L91.2,278.4z"/>
	<path style="fill:#F2F2F2;" d="M164.8,278.4l-9.6-12.8l23.464-17.6L155.2,230.4l9.6-12.8l32,24c3.535,2.651,4.251,7.665,1.6,11.2
		c-0.455,0.606-0.994,1.145-1.6,1.6L164.8,278.4z"/>
	<path style="fill:#F2F2F2;" d="M104.566,285.013l32.007-79.994l14.862,5.947l-32.007,79.994L104.566,285.013z"/>
</g>
<path style="fill:#FCBF29;" d="M312,248v-24.632c-30.611-17.673-41.099-56.815-23.426-87.426
	c17.673-30.611,56.815-41.099,87.426-23.426s41.099,56.815,23.426,87.426c-5.617,9.729-13.696,17.808-23.426,23.426V248H312z"/>
<path style="fill:#0071BC;" d="M312,248h64v32h-64V248z"/>
<path style="opacity:0.5;fill:#F28D01;enable-background:new    ;" d="M320,208c35.315,0.03,63.968-28.574,63.998-63.89
	c0.009-11.123-2.882-22.055-8.39-31.718c30.707,17.407,41.489,56.411,24.082,87.118c-5.626,9.924-13.806,18.162-23.69,23.858V248
	h-64v-24.632c-9.804-5.699-17.931-13.884-23.56-23.728C298.054,205.123,308.932,208.004,320,208z"/>
<g>
	<path style="fill:none;stroke:#FFFFFF;stroke-width:2;stroke-linejoin:round;" d="M344,248v-56"/>
	<path style="fill:none;stroke:#FFFFFF;stroke-width:2;stroke-linejoin:round;" d="M368,168l-24,24l-24-24"/>
</g>
<path style="fill:#8C6239;" d="M288,240h112v16H288V240z"/>
<path style="fill:#DA4836;" d="M344,424l64-32l-64-32H16v64H344z"/>
<path style="fill:#F8CF26;" d="M64,360h32v64H64V360z"/>
<path style="fill:#FBB03B;" d="M16,360h48v64H16V360z"/>
<path style="fill:#8C6239;" d="M344,360l64,32l-64,32V360z"/>
<path style="fill:#F7931E;" d="M96,392h248v32H96V392z"/>
<g>
</g>
<g>
</g>
<g>
</g>
<g>
</g>
<g>
</g>
<g>
</g>
<g>
</g>
<g>
</g>
<g>
</g>
<g>
</g>
<g>
</g>
<g>
</g>
<g>
</g>
<g>
</g>
<g>
</g>
</svg>
